<?xml version="1.0" encoding="UTF-8" standalone="no"?>
<svg
   version="1.1"
   id="Layer_1"
   x="0px"
   y="0px"
   width="100%"
   viewBox="0 0 500 500"
   enable-background="new 0 0 500 500"
   xml:space="preserve"
   sodipodi:docname="logo4.svg"
   inkscape:version="1.2.1 (9c6d41e, 2022-07-14)"
   xmlns:inkscape="http://www.inkscape.org/namespaces/inkscape"
   xmlns:sodipodi="http://sodipodi.sourceforge.net/DTD/sodipodi-0.dtd"
   xmlns="http://www.w3.org/2000/svg"
   xmlns:svg="http://www.w3.org/2000/svg"><defs
   id="defs169" /><sodipodi:namedview
   id="namedview167"
   pagecolor="#ffffff"
   bordercolor="#000000"
   borderopacity="0.25"
   inkscape:showpageshadow="2"
   inkscape:pageopacity="0.0"
   inkscape:pagecheckerboard="0"
   inkscape:deskcolor="#d1d1d1"
   showgrid="false"
   inkscape:zoom="0.472"
   inkscape:cx="226.69492"
   inkscape:cy="260.59322"
   inkscape:window-width="1309"
   inkscape:window-height="856"
   inkscape:window-x="553"
   inkscape:window-y="0"
   inkscape:window-maximized="0"
   inkscape:current-layer="Layer_1" />

<path
   fill="#4EBFF3"
   opacity="1.000000"
   stroke="none"
   d=" M165.991638,322.019348   C168.783981,321.144867 172.080322,320.930695 174.266510,319.262024   C179.215271,315.484741 183.051468,316.145172 186.922318,320.589722   C188.215012,322.074005 189.838943,323.333252 191.489136,324.427429   C193.819351,325.972565 195.208847,325.210327 195.744690,322.571899   C197.535599,323.724213 198.938538,324.677094 200.340012,325.632111   C202.056732,326.801941 204.360321,327.610046 205.358414,329.224701   C207.111069,332.060089 209.623962,332.899933 211.977219,331.642426   C214.069122,330.524567 215.365952,327.918793 217.013718,325.969757   C219.162247,325.943970 221.595856,326.561432 223.401184,325.761292   C227.418396,323.980804 230.116669,324.419281 232.166641,328.520020   C233.253418,330.693970 234.868546,332.603760 235.885925,335.133881   C232.894608,335.666748 230.247864,335.554108 227.639450,335.818848   C226.862885,335.897675 226.193787,337.035278 225.475433,337.687714   C226.245865,338.311584 226.947922,339.334229 227.800247,339.480377   C229.888306,339.838318 232.045731,339.791809 234.175232,339.908051   C231.078033,344.119324 228.081436,348.412598 224.781647,352.458618   C224.249939,353.110596 222.367432,352.660889 221.285583,352.376038   C224.288834,349.365662 227.115829,346.699677 230.207047,343.784576   C222.600815,339.696747 218.562210,341.973267 217.009232,349.977539   C214.959427,350.382141 212.472717,350.188416 210.943085,351.305328   C206.636612,354.449921 202.659424,356.346436 198.266907,351.191284   C197.728134,350.513428 197.219498,350.288025 196.710861,350.062622   C196.710861,350.062622 196.324951,350.098602 196.102692,349.676361   C192.870285,346.283600 189.830841,343.342102 186.855942,340.336731   C179.941803,333.351776 170.457474,333.836273 164.105087,341.058014   C162.622375,342.743622 159.531876,344.008972 157.302597,343.842316   C152.265533,343.465881 149.821564,345.278046 149.435486,350.185699   C149.293060,351.996002 149.113892,353.803436 148.951477,355.612183   C146.887604,357.262848 144.857529,358.958099 142.752045,360.553864   C139.451477,363.055328 132.522385,363.149872 130.865417,359.727081   C127.011162,351.765350 120.067680,350.219666 112.616653,348.990631   C112.157166,348.914856 111.735222,348.611511 110.656296,348.126587   C111.377350,345.019135 112.159592,341.872101 112.828873,338.701202   C113.513138,335.459290 114.691368,332.172638 114.577461,328.943542   C114.367332,322.986511 117.557899,320.316101 122.286926,317.619629   C126.316986,315.321716 129.665955,314.806549 133.919815,316.405334   C136.744492,317.467010 139.943283,317.533264 143.469940,318.237000   C146.570541,320.057190 149.175797,321.685455 151.993530,323.446472   C151.459824,324.745789 150.523880,326.082703 150.448196,327.466644   C150.368378,328.926575 150.650558,331.071991 151.606415,331.756714   C152.837936,332.638885 155.661560,333.193176 156.465820,332.448425   C159.908371,329.260742 162.860611,325.543518 165.991638,322.019348  z"
   id="path4" />
<path
   fill="#EC40CA"
   opacity="1.000000"
   stroke="none"
   d=" M357.791412,314.017975   C358.615631,310.691193 356.758392,309.981659 353.980286,309.990387   C347.191376,310.011749 340.401886,309.992859 333.613586,309.910950   C332.349335,309.895691 331.089508,309.510590 329.437683,308.641510   C330.242432,296.944458 331.610687,285.916260 332.514252,274.850098   C332.750732,271.953766 331.543549,268.939575 330.999359,265.979492   C331.427185,265.912445 331.855042,265.845398 333.152191,265.572815   C335.564392,265.470612 337.107269,265.574005 338.982849,265.693420   C339.941650,265.798767 340.567688,265.888062 341.193756,265.977386   C341.522980,265.977997 341.852173,265.978577 342.903259,266.355530   C344.099823,268.370880 345.103180,270.058197 344.958344,271.640442   C344.300934,278.822266 343.212799,285.964752 342.559601,293.146851   C342.449585,294.356842 343.714752,295.691895 344.344543,296.969177   C348.250366,297.058624 352.156189,297.148071 356.549561,297.265259   C357.037048,297.293060 357.082916,297.384735 357.082916,297.384735   C357.082916,297.384735 357.022156,297.376434 357.022156,297.376434   C357.303894,297.326538 357.585632,297.276611 358.709259,297.245361   C360.432129,295.902710 361.853973,294.633575 362.104340,293.164734   C363.501007,284.970612 364.547394,276.717102 365.903076,268.515228   C366.085968,267.408600 367.336700,266.478485 368.092987,265.466614   C370.039520,265.632324 371.986023,265.798035 374.721863,266.319458   C376.126434,268.586700 377.453033,270.580139 377.243927,272.396820   C375.635254,286.371796 373.951385,300.347107 371.792694,314.244904   C371.044922,319.059204 371.753265,324.871765 366.150360,327.829254   C354.392670,328.082306 342.635864,328.459198 330.876984,328.541656   C323.914215,328.590515 322.592590,326.122131 326.180023,320.022369   C327.119476,318.425018 328.909180,317.327759 331.070435,315.956207   C339.260834,315.841125 346.691376,315.845886 354.115295,315.626343   C355.355438,315.589691 356.566772,314.578735 357.791412,314.017975  z"
   id="path6" />
<path
   fill="#EB41CA"
   opacity="1.000000"
   stroke="none"
   d=" M178.909134,282.844238   C186.748901,282.342163 194.588196,281.832733 202.428726,281.343018   C204.461990,281.216034 206.499100,281.150604 208.534424,281.056885   C208.547195,280.403015 208.559952,279.749176 208.572708,279.095306   C201.719254,278.967438 194.865784,278.839569 187.251709,278.624573   C185.347580,278.376709 184.204056,278.215973 183.060547,278.055237   C183.060547,278.055237 182.821686,277.954651 182.523285,277.683228   C181.812561,277.256317 181.400238,277.100861 180.987915,276.945404   C180.987915,276.945404 180.993484,277.004608 181.033142,276.584503   C180.761642,272.802948 180.450470,269.441467 180.139313,266.080017   C193.480331,266.061493 206.821350,266.042969 220.858368,266.359863   C222.288284,269.229736 223.652222,271.774078 223.612747,274.296417   C223.548798,278.381836 222.740082,282.488342 221.929260,286.522278   C220.410294,294.079285 218.664810,301.590759 217.013565,309.121155   C217.013565,309.121155 217.001633,309.041687 216.725189,309.054321   C215.688065,309.304291 214.927383,309.541565 214.166718,309.778870   C201.416870,309.624786 188.667023,309.470642 175.555786,308.655701   C176.432632,299.611328 177.670883,291.227783 178.909134,282.844238  M206.239594,297.097809   C205.771332,296.164886 205.334259,294.441132 204.829971,294.421265   C199.744156,294.220612 194.647324,294.299011 189.553589,294.299011   C189.539627,294.780121 189.525681,295.261230 189.511719,295.742310   C194.466782,299.094025 200.200500,296.755585 206.239594,297.097809  z"
   id="path8" />
<path
   fill="#EC40CA"
   opacity="1.000000"
   stroke="none"
   d=" M284.125397,267.135010   C291.457703,266.755585 298.789246,266.360596 306.122833,266.007782   C307.927185,265.920959 309.738129,265.971497 312.401855,265.965149   C314.170807,263.791870 315.114502,261.624481 315.990082,259.429962   C317.360016,255.996429 318.683899,252.544510 320.027283,249.100372   C322.013763,248.704071 324.000244,248.307770 326.656403,247.785187   C328.670624,247.809235 330.015167,247.959564 331.487030,248.124146   C330.485077,250.082077 329.313782,251.456360 329.081146,252.974487   C327.606537,262.597961 326.495331,272.278168 324.958832,281.890839   C323.504150,290.991486 321.675110,300.032318 320.010712,309.099457   C320.010712,309.099457 320.003723,309.026703 319.720825,309.040497   C318.673309,309.300995 317.908661,309.547699 317.143982,309.794434   C304.357239,309.620209 291.570526,309.446014 278.372742,308.614380   C278.341431,302.545380 278.330414,297.070679 279.191345,291.736755   C280.523102,283.485687 282.450562,275.330750 284.125397,267.135010  M294.196442,297.130951   C298.004059,297.216522 301.811676,297.302094 306.587952,297.211060   C306.913574,297.169800 307.239197,297.128540 308.402649,297.317993   C309.130920,296.745850 310.387054,296.264923 310.504181,295.587158   C311.470367,289.996490 312.225311,284.369324 313.067200,278.595825   C307.692627,278.595825 303.091003,278.595825 297.195892,278.820496   C296.765320,278.898712 296.334747,278.976929 295.117126,279.052246   C294.550049,279.309479 293.543884,279.488434 293.481903,279.835785   C292.597961,284.792053 291.730469,289.758759 291.177917,294.758240   C291.097809,295.483185 292.674194,296.391174 294.196442,297.130951  z"
   id="path10" />
<path
   fill="#EB41CA"
   opacity="1.000000"
   stroke="none"
   d=" M194.076157,200.099777   C200.313034,199.731308 206.545670,199.200714 212.787918,199.038193   C219.574265,198.861496 226.369492,199.026917 233.816971,199.324860   C235.008148,199.722672 235.543213,199.838760 236.078278,199.954865   C236.078278,199.954865 236.011703,199.898529 236.061951,200.283722   C236.387451,202.448151 237.034622,204.263000 236.868317,205.999954   C236.366928,211.236801 235.807693,216.494339 234.791107,221.649170   C233.435776,228.521683 231.628983,235.305161 230.016113,242.126892   C230.016113,242.126892 230.001999,242.046463 229.763184,242.064102   C229.043152,242.318695 228.561951,242.555649 228.080734,242.792587   C215.193970,242.750839 202.307205,242.709076 189.087250,241.943039   C188.507645,239.772644 187.862900,238.264435 188.077103,236.890121   C189.990677,224.613266 192.055710,212.359985 194.076157,200.099777  M204.686325,230.105545   C209.127243,230.093033 213.568146,230.080536 218.540405,230.391891   C219.394073,229.830322 220.879044,229.380753 221.001694,228.689484   C221.996582,223.081985 222.736084,217.429169 223.581802,211.594482   C218.332870,211.594482 213.899338,211.594482 208.377396,211.760208   C207.651993,211.871399 206.926590,211.982590 205.419662,212.111908   C205.118683,212.233200 204.582809,212.310608 204.550766,212.482162   C203.507278,218.066208 202.499283,223.657257 201.605331,229.266266   C201.587769,229.376389 202.993195,229.713303 204.686325,230.105545  z"
   id="path12" />
<path
   fill="#EC40CA"
   opacity="1.000000"
   stroke="none"
   d=" M330.083618,242.786621   C327.409637,242.840302 324.735626,242.893982 321.659973,242.521057   C321.942444,237.271576 322.626556,232.448730 323.348785,227.357101   C317.665802,227.357101 312.641418,227.357101 307.617035,227.357101   C307.311676,227.415115 307.006348,227.473129 305.897644,227.760681   C304.399445,229.076385 303.436951,230.077545 303.060059,231.264633   C301.923737,234.843170 301.015198,238.494034 300.017822,242.116699   C300.017822,242.116699 300.001495,242.043732 299.722229,242.052795   C298.683838,242.302704 297.924652,242.543549 297.165497,242.784393   C293.813110,242.837708 290.460754,242.891022 286.660645,242.740234   C286.212952,242.536148 286.218201,242.208786 286.552917,242.092407   C287.940155,239.836487 289.609711,237.789551 289.946899,235.542648   C292.508606,218.472992 294.820862,201.365753 297.179657,184.265915   C297.528748,181.735291 298.143738,179.662704 301.417389,180.488037   C302.829529,180.639328 304.241699,180.790619 306.535278,181.266754   C307.970428,181.719269 308.524109,181.846939 309.077820,181.974609   C309.077820,181.974609 309.008484,181.986679 308.992218,182.418137   C308.121338,190.993530 307.186768,199.130386 306.463470,207.285980   C306.260773,209.571442 304.126709,212.486603 307.918976,213.978867   C308.160278,214.101776 308.401611,214.224670 309.272064,214.349075   C314.846222,214.350571 319.791229,214.350571 324.828461,214.350571   C325.908722,209.687531 327.025787,204.865417 328.142883,200.043304   C331.791748,199.684982 335.440613,199.326660 339.480835,199.426392   C338.455048,207.000961 337.037933,214.117493 335.274780,222.971664   C336.859985,228.386871 335.373901,235.358322 332.015839,242.129074   C332.015839,242.129074 332.001770,242.046799 331.764587,242.064575   C331.046112,242.317108 330.564880,242.551865 330.083618,242.786621  z"
   id="path14" />
<path
   fill="#EB41CA"
   opacity="1.000000"
   stroke="none"
   d=" M245.039124,200.137375   C249.628891,199.756378 254.214401,199.124634 258.809296,199.046814   C268.267670,198.886597 277.731049,199.022430 287.635132,199.521545   C286.731232,203.653000 285.384521,207.299362 283.996063,210.999115   C283.954315,211.052521 283.833771,210.990555 283.541504,211.053314   C282.289673,211.236511 281.330109,211.356979 279.893372,211.599823   C271.947937,211.844208 264.479675,211.966187 256.625366,212.097534   C255.801010,212.317581 255.027252,212.465195 254.974060,212.748230   C253.978012,218.047043 253.025421,223.355774 252.246292,228.689117   C252.200821,229.000320 253.704086,229.537750 254.981293,230.057114   C265.692780,230.144318 275.909576,230.144318 285.941589,230.144318   C285.692932,233.303070 285.519684,235.503906 285.326996,237.530411   C285.148315,237.435654 284.989044,237.515228 284.542175,238.619507   C284.097168,240.336075 283.939758,241.027924 283.692352,241.709961   C283.602356,241.700134 283.587341,241.968704 283.587341,241.968704   C269.003601,242.082657 254.419861,242.196625 239.451721,241.657776   C239.400375,236.418213 239.417725,231.781555 240.132996,227.255219   C241.566483,218.184036 243.381561,209.173157 245.039124,200.137375  z"
   id="path16" />
<path
   fill="#EB41CA"
   opacity="1.000000"
   stroke="none"
   d=" M170.042358,277.939148   C163.284332,278.241486 156.526917,278.558929 149.767883,278.836792   C147.778870,278.918579 145.785248,278.888336 142.932053,278.987793   C141.505646,279.333435 140.504623,279.523804 140.441940,279.879578   C139.560974,284.878204 138.729126,289.889954 138.128647,294.927521   C138.057877,295.521149 139.427872,296.286499 140.129974,296.972260   C149.207748,297.075012 158.285522,297.177734 168.082977,297.557526   C168.205566,301.590240 167.608490,305.345917 167.011414,309.101562   C167.011429,309.101562 167.002228,309.029022 166.719482,309.043945   C165.672241,309.304932 164.907761,309.550964 164.143265,309.796997   C151.356003,309.622314 138.568726,309.447632 125.375092,308.614868   C125.834206,299.270935 126.460098,290.551880 127.657181,281.911987   C128.348846,276.919800 129.961823,272.055298 131.160156,267.133331   C134.403732,266.753998 137.643906,266.086731 140.891525,266.048096   C151.640976,265.920319 162.393112,266.019257 173.590668,266.503906   C173.386932,270.362274 172.736771,273.747894 172.086609,277.133545   C172.086594,277.133545 172.028564,277.109161 171.750885,277.075623   C170.996246,277.341095 170.519302,277.640106 170.042358,277.939148  z"
   id="path18" />
<path
   fill="#EC40CA"
   opacity="1.000000"
   stroke="none"
   d=" M266.155457,309.786438   C263.731689,309.847260 261.307922,309.908112 258.452698,309.505280   C259.296143,300.182770 260.650238,291.333801 261.752869,282.453583   C261.902924,281.245239 263.886963,277.927216 259.645660,278.983154   C255.052841,278.961914 250.460022,278.940674 245.018097,279.020264   C243.453583,280.086792 242.276749,280.975647 242.100891,282.031281   C241.242920,287.181152 240.803146,292.401398 239.922043,297.546509   C239.139297,302.117157 239.256226,307.233948 234.131012,309.800781   C230.279297,309.806885 226.427597,309.812988 222.648102,309.424255   C224.086487,306.931671 226.177368,304.991516 226.674622,302.704834   C227.871719,297.199738 228.114548,291.494354 229.129379,285.940460   C230.282211,279.631348 231.856201,273.399170 233.247101,267.133545   C236.813080,266.754608 240.374847,266.105469 243.945877,266.049713   C253.032196,265.907806 262.122681,266.031311 271.926025,266.381470   C273.446594,268.358185 274.912994,269.995911 274.928314,271.647095   C274.966461,275.754395 274.629913,279.917633 273.926239,283.968475   C272.465515,292.377625 270.669128,300.728455 269.010742,309.103271   C269.010742,309.103271 269.005371,309.029358 268.724365,309.042480   C267.680725,309.299255 266.918091,309.542847 266.155457,309.786438  z"
   id="path20" />
<path
   fill="#EB41CA"
   opacity="1.000000"
   stroke="none"
   d=" M144.137238,200.134674   C148.382980,199.726730 152.622940,199.061447 156.875717,198.965591   C165.172775,198.778580 173.477036,198.901794 181.778290,198.912369   C188.411087,198.920837 188.458023,198.985825 187.713531,206.306030   C187.758575,207.007339 187.743027,207.145523 187.736404,207.284149   C187.730743,207.402527 187.735352,207.521378 187.735413,207.640030   C187.777298,207.566284 187.819199,207.492538 187.861115,207.418793   C184.559998,208.881622 181.349854,211.279877 177.938705,211.611664   C170.933167,212.293091 163.819992,211.867966 155.908813,212.016937   C154.366272,213.303711 153.257843,214.399124 153.034546,215.652267   C151.905472,221.988617 151.367126,228.452652 149.867477,234.690628   C149.168762,237.597000 146.762955,240.092987 145.130936,242.774994   C141.458054,242.526291 137.785156,242.277588 134.414902,241.517975   C135.652740,239.549698 137.063248,238.200989 137.426361,236.612823   C138.236282,233.070328 138.377655,229.380814 139.052292,225.800369   C140.667114,217.230042 142.432571,208.688080 144.137238,200.134674  z"
   id="path22" />
<path
   fill="#23AEF0"
   opacity="1.000000"
   stroke="none"
   d=" M149.342789,355.580566   C149.113892,353.803436 149.293060,351.996002 149.435486,350.185699   C149.821564,345.278046 152.265533,343.465881 157.302597,343.842316   C159.531876,344.008972 162.622375,342.743622 164.105087,341.058014   C170.457474,333.836273 179.941803,333.351776 186.855942,340.336731   C189.830841,343.342102 192.870285,346.283600 195.928864,349.590668   C193.225418,351.758789 190.286438,353.366913 187.767380,355.476501   C184.355057,358.334076 181.410934,358.322510 178.248077,355.211365   C176.974411,353.958527 175.349731,353.062561 173.607910,351.804108   C170.660202,354.337921 167.626144,356.628845 164.990295,359.311066   C162.843658,361.495483 160.988983,361.607788 158.470200,360.084076   C155.668839,358.389404 152.655289,357.045502 149.342789,355.580566  z"
   id="path24" />
<path
   fill="#F6D560"
   opacity="1.000000"
   stroke="none"
   d=" M234.628464,339.861481   C232.045731,339.791809 229.888306,339.838318 227.800247,339.480377   C226.947922,339.334229 226.245865,338.311584 225.475433,337.687714   C226.193787,337.035278 226.862885,335.897675 227.639450,335.818848   C230.247864,335.554108 232.894608,335.666748 236.003601,335.498840   C254.791489,335.343964 273.103027,335.383698 291.412598,335.211395   C293.142975,335.195129 295.201202,334.227753 296.521454,333.046997   C300.689697,329.319214 304.475739,328.967651 307.841522,332.449677   C310.840027,335.551758 310.653900,340.104950 307.407928,343.056824   C304.035492,346.123749 300.167114,345.578979 296.479767,341.817322   C295.480408,340.797821 293.855347,339.803986 292.512512,339.797333   C273.369415,339.702545 254.225449,339.779419 234.628464,339.861481  z"
   id="path26" />
<path
   fill="#23AEF0"
   opacity="1.000000"
   stroke="none"
   d=" M165.774307,321.768677   C162.860611,325.543518 159.908371,329.260742 156.465820,332.448425   C155.661560,333.193176 152.837936,332.638885 151.606415,331.756714   C150.650558,331.071991 150.368378,328.926575 150.448196,327.466644   C150.523880,326.082703 151.459824,324.745789 151.993530,323.446472   C149.175797,321.685455 146.570541,320.057190 143.858383,318.037567   C146.727585,316.008057 149.616730,314.162720 152.731720,312.855591   C153.689545,312.453674 155.503250,313.209473 156.512939,313.977142   C159.634354,316.350372 162.557098,318.984894 165.774307,321.768677  z"
   id="path28" />
<path
   fill="#20F3FC"
   opacity="1.000000"
   stroke="none"
   d=" M301.478302,180.695160   C298.143738,179.662704 297.528748,181.735291 297.179657,184.265915   C294.820862,201.365753 292.508606,218.472992 289.946899,235.542648   C289.609711,237.789551 287.940155,239.836487 286.340393,241.879822   C285.651947,241.641327 285.510834,241.499054 285.534393,241.145416   C285.995880,240.491684 286.292664,240.049332 286.763977,239.237961   C287.537354,235.265305 288.286316,231.678955 288.703522,228.054398   C289.549530,220.703903 290.215912,213.332733 290.944458,205.982758   C290.932587,205.995453 290.894592,205.971298 290.894592,205.971298   C291.927185,200.747559 293.015808,195.534058 293.971039,190.296204   C294.530853,187.226349 294.878143,184.117722 295.338867,180.902283   C297.603851,180.902283 299.571533,180.902283 301.478302,180.695160  z"
   id="path30" />
<path
   fill="#FE13FB"
   opacity="1.000000"
   stroke="none"
   d=" M320.380310,309.112366   C321.675110,300.032318 323.504150,290.991486 324.958832,281.890839   C326.495331,272.278168 327.606537,262.597961 329.081146,252.974487   C329.313782,251.456360 330.485077,250.082077 331.487030,248.124146   C330.015167,247.959564 328.670624,247.809235 327.165039,247.698730   C329.408386,247.738586 331.812836,247.738586 332.974976,247.738586   C331.937988,253.588669 330.940338,259.216614 329.693481,265.319427   C329.615723,267.016846 329.787262,268.239349 329.618042,269.745178   C329.183441,272.362427 329.089600,274.696350 329.006714,277.018494   C329.017700,277.006653 329.016327,276.974487 328.646667,277.155762   C327.834839,282.226440 327.392700,287.115814 326.975647,292.003601   C327.000793,292.001953 326.964661,291.966949 326.592682,292.149323   C326.139435,294.562500 326.058136,296.793304 325.993286,299.019806   C326.009674,299.015503 326.003967,298.983398 326.003967,298.983398   C325.350342,301.065979 324.922729,303.259827 323.969727,305.194977   C323.240936,306.674744 321.847595,307.827209 320.380310,309.112366  z"
   id="path32" />
<path
   fill="#FE13FB"
   opacity="1.000000"
   stroke="none"
   d=" M366.513794,327.879639   C371.753265,324.871765 371.044922,319.059204 371.792694,314.244904   C373.951385,300.347107 375.635254,286.371796 377.243927,272.396820   C377.453033,270.580139 376.126434,268.586700 375.300354,266.412354   C380.144104,265.873505 380.329254,269.333069 379.890594,272.812500   C378.524475,283.648651 376.984283,294.463165 375.474182,305.280853   C374.696533,310.851807 373.908569,316.423035 372.992767,321.972321   C372.432068,325.370087 370.792816,327.872925 366.513794,327.879639  z"
   id="path34" />
<path
   fill="#23AEF0"
   opacity="1.000000"
   stroke="none"
   d=" M216.810730,325.707733   C215.365952,327.918793 214.069122,330.524567 211.977219,331.642426   C209.623962,332.899933 207.111069,332.060089 205.358414,329.224701   C204.360321,327.610046 202.056732,326.801941 200.340012,325.632111   C198.938538,324.677094 197.535599,323.724213 196.079529,322.416504   C204.335098,314.376953 210.358917,320.595703 216.810730,325.707733  z"
   id="path36" />
<path
   fill="#20F3FC"
   opacity="1.000000"
   stroke="none"
   d=" M244.686676,200.076813   C243.381561,209.173157 241.566483,218.184036 240.132996,227.255219   C239.417725,231.781555 239.400375,236.418213 239.086884,241.453186   C234.465271,241.151932 237.024765,237.226486 235.960083,234.034409   C237.265274,223.831940 238.619095,214.473129 239.972931,205.114319   C241.426712,203.414963 242.880463,201.715607 244.686676,200.076813  z"
   id="path38" />
<path
   fill="#20F3FC"
   opacity="1.000000"
   stroke="none"
   d=" M329.958801,269.461884   C329.787262,268.239349 329.615723,267.016846 329.697449,265.717468   C330.120361,265.712891 330.290039,265.785156 330.729553,265.918457   C331.543549,268.939575 332.750732,271.953766 332.514252,274.850098   C331.610687,285.916260 330.242432,296.944458 329.069946,308.438263   C323.808594,307.104828 327.020416,302.899811 326.247742,299.371948   C326.003967,298.983398 326.009674,299.015503 326.365662,298.839294   C326.802673,296.431030 326.883667,294.199005 326.964661,291.966949   C326.964661,291.966949 327.000793,292.001953 327.343292,291.820618   C328.129303,286.751038 328.572815,281.862762 329.016327,276.974487   C329.016327,276.974487 329.017700,277.006653 329.390503,276.812988   C329.828461,274.233521 329.893616,271.847717 329.958801,269.461884  z"
   id="path40" />
<path
   fill="#FE13FB"
   opacity="1.000000"
   stroke="none"
   d=" M217.392853,309.144928   C218.664810,301.590759 220.410294,294.079285 221.929260,286.522278   C222.740082,282.488342 223.548798,278.381836 223.612747,274.296417   C223.652222,271.774078 222.288284,269.229736 221.328308,266.434052   C225.974945,265.860199 226.632538,269.002289 226.159470,272.679565   C224.762253,283.540314 223.213531,294.381531 221.862061,305.616211   C222.000031,306.002014 222.042862,306.002380 221.655975,306.097046   C221.116226,306.939209 220.963379,307.686676 220.781647,308.458130   C220.752792,308.482117 220.681244,308.504639 220.681244,308.504639   C219.711548,308.726013 218.741837,308.947357 217.392853,309.144928  z"
   id="path42" />
<path
   fill="#20F3FC"
   opacity="1.000000"
   stroke="none"
   d=" M187.812836,207.215652   C187.819199,207.492538 187.777298,207.566284 187.735413,207.640030   C187.735352,207.521378 187.730743,207.402527 187.736404,207.284149   C187.743027,207.145523 187.758575,207.007339 187.781311,206.852585   C189.651978,204.546066 191.511581,202.255920 193.723663,200.032776   C192.055710,212.359985 189.990677,224.613266 188.077103,236.890121   C187.862900,238.264435 188.507645,239.772644 188.795853,241.623749   C184.585373,241.808670 185.378296,238.599930 185.663101,236.146362   C186.676987,227.411346 187.985413,218.710663 189.025009,209.978271   C189.135208,209.052826 188.209641,208.004059 187.812836,207.215652  z"
   id="path44" />
<path
   fill="#20F3FC"
   opacity="1.000000"
   stroke="none"
   d=" M220.996658,308.710754   C220.681244,308.504639 220.752792,308.482117 221.128174,308.209167   C221.683334,307.291626 221.863098,306.647003 222.042862,306.002380   C222.042862,306.002380 222.000031,306.002014 222.006470,306.022217   C222.739975,304.940399 223.934418,303.911469 224.119873,302.724823   C225.556778,293.531311 226.553238,284.261902 228.245743,275.119568   C228.776550,272.252289 231.017746,269.701630 232.861588,267.069763   C231.856201,273.399170 230.282211,279.631348 229.129379,285.940460   C228.114548,291.494354 227.871719,297.199738 226.674622,302.704834   C226.177368,304.991516 224.086487,306.931671 222.362671,309.121216   C221.774048,309.114319 221.543060,309.015625 220.996658,308.710754  z"
   id="path46" />
<path
   fill="#FE13FB"
   opacity="1.000000"
   stroke="none"
   d=" M332.391418,242.155914   C335.373901,235.358322 336.859985,228.386871 335.274780,222.971664   C337.037933,214.117493 338.455048,207.000961 339.928711,199.488815   C340.653992,199.713531 341.990692,200.482101 341.890869,200.931839   C340.480286,207.287384 338.850464,213.593918 337.346680,219.929642   C337.159180,220.719620 337.483246,221.616898 337.410156,222.450424   C336.900787,228.258408 336.468018,234.078781 335.686249,239.851257   C335.565338,240.743835 333.781708,241.411224 332.391418,242.155914  z"
   id="path48" />
<path
   fill="#20F3FC"
   opacity="1.000000"
   stroke="none"
   d=" M130.780960,267.078430   C129.961823,272.055298 128.348846,276.919800 127.657181,281.911987   C126.460098,290.551880 125.834206,299.270935 125.005058,308.409790   C124.036819,307.364288 122.025993,305.747131 122.186478,304.386017   C123.496971,293.271454 125.100266,282.185944 126.935738,271.145050   C127.189056,269.621246 129.202942,268.390137 130.780960,267.078430  z"
   id="path50" />
<path
   fill="#20F3FC"
   opacity="1.000000"
   stroke="none"
   d=" M143.759003,200.074142   C142.432571,208.688080 140.667114,217.230042 139.052292,225.800369   C138.377655,229.380814 138.236282,233.070328 137.426361,236.612823   C137.063248,238.200989 135.652740,239.549698 134.360214,241.110519   C135.785431,229.507248 137.414093,217.773163 139.486908,206.118073   C139.877487,203.921875 142.037354,202.040344 143.759003,200.074142  z"
   id="path52" />
<path
   fill="#FE13FB"
   opacity="1.000000"
   stroke="none"
   d=" M239.653229,204.906372   C238.619095,214.473129 237.265274,223.831940 235.853043,233.628036   C234.117493,236.773315 232.440338,239.481308 230.389648,242.158096   C231.628983,235.305161 233.435776,228.521683 234.791107,221.649170   C235.807693,216.494339 236.366928,211.236801 236.868317,205.999954   C237.034622,204.263000 236.387451,202.448151 236.092102,200.252228   C239.819427,199.672287 238.617691,202.828400 239.653229,204.906372  z"
   id="path54" />
<path
   fill="#FE13FB"
   opacity="1.000000"
   stroke="none"
   d=" M269.382568,309.112915   C270.669128,300.728455 272.465515,292.377625 273.926239,283.968475   C274.629913,279.917633 274.966461,275.754395 274.928314,271.647095   C274.912994,269.995911 273.446594,268.358185 272.399353,266.455933   C277.460541,266.688019 278.524353,267.944183 277.845154,273.525574   C276.829376,281.873077 275.665100,290.202515 274.755554,298.983551   C274.947174,299.427460 274.932800,299.382172 274.932800,299.382172   C273.206665,302.628967 271.480499,305.875732 269.382568,309.112915  z"
   id="path56" />
<path
   fill="#20F3FC"
   opacity="1.000000"
   stroke="none"
   d=" M275.081116,299.838501   C274.932800,299.382172 274.947174,299.427460 274.928284,299.441589   C276.277649,291.339050 277.397980,283.168488 279.146423,275.134613   C279.771881,272.260681 281.915588,269.717163 283.745880,267.078949   C282.450562,275.330750 280.523102,283.485687 279.191345,291.736755   C278.330414,297.070679 278.341431,302.545380 278.002777,308.409424   C272.464935,307.530792 276.034698,303.194183 275.081116,299.838501  z"
   id="path58" />
<path
   fill="#20F3FC"
   opacity="1.000000"
   stroke="none"
   d=" M367.994781,265.638489   C367.336700,266.478485 366.085968,267.408600 365.903076,268.515228   C364.547394,276.717102 363.501007,284.970612 362.104340,293.164734   C361.853973,294.633575 360.432129,295.902710 359.132263,297.172546   C360.159485,288.012268 361.813324,278.969330 362.945618,269.861542   C363.376190,266.398315 364.629944,265.196320 367.994781,265.638489  z"
   id="path60" />
<path
   fill="#FE13FB"
   opacity="1.000000"
   stroke="none"
   d=" M344.478027,296.558044   C343.714752,295.691895 342.449585,294.356842 342.559601,293.146851   C343.212799,285.964752 344.300934,278.822266 344.958344,271.640442   C345.103180,270.058197 344.099823,268.370880 343.389160,266.443542   C347.942017,265.623993 348.283936,268.753387 347.862244,272.156891   C346.869995,280.164856 345.705963,288.151581 344.478027,296.558044  z"
   id="path62" />
<path
   fill="#23AEF0"
   opacity="1.000000"
   stroke="none"
   d=" M217.235397,350.192200   C218.562210,341.973267 222.600815,339.696747 230.207047,343.784576   C227.115829,346.699677 224.288834,349.365662 221.099457,352.104004   C219.645233,351.586517 218.553406,350.996674 217.235397,350.192200  z"
   id="path64" />
<path
   fill="#FE13FB"
   opacity="1.000000"
   stroke="none"
   d=" M307.994385,213.586624   C304.126709,212.486603 306.260773,209.571442 306.463470,207.285980   C307.186768,199.130386 308.121338,190.993530 309.000305,182.383896   C309.908173,183.876633 311.703491,185.925903 311.518982,187.777939   C310.671997,196.280258 309.271606,204.727417 307.994385,213.586624  z"
   id="path66" />
<path
   fill="#FE13FB"
   opacity="1.000000"
   stroke="none"
   d=" M234.500397,309.849762   C239.256226,307.233948 239.139297,302.117157 239.922043,297.546509   C240.803146,292.401398 241.242920,287.181152 242.100891,282.031281   C242.276749,280.975647 243.453583,280.086792 244.549606,279.101440   C243.888672,286.629944 242.940125,294.192596 241.768005,301.720459   C241.143723,305.729889 240.252686,309.780884 234.500397,309.849762  z"
   id="path68" />
<path
   fill="#20F3FC"
   opacity="1.000000"
   stroke="none"
   d=" M259.641479,279.439880   C263.886963,277.927216 261.902924,281.245239 261.752869,282.453583   C260.650238,291.333801 259.296143,300.182770 258.002441,309.449707   C254.937164,310.536469 255.713196,308.489197 255.926163,306.921448   C257.150146,297.911346 258.397736,288.904510 259.641479,279.439880  z"
   id="path70" />
<path
   fill="#FE13FB"
   opacity="1.000000"
   stroke="none"
   d=" M145.492065,242.811829   C146.762955,240.092987 149.168762,237.597000 149.867477,234.690628   C151.367126,228.452652 151.905472,221.988617 153.034546,215.652267   C153.257843,214.399124 154.366272,213.303711 155.432465,212.093719   C154.562088,220.179688 153.304291,228.304321 152.099136,236.436768   C151.554321,240.113281 149.834641,242.561050 145.492065,242.811829  z"
   id="path72" />
<path
   fill="#20F3FC"
   opacity="1.000000"
   stroke="none"
   d=" M178.541473,282.884644   C177.670883,291.227783 176.432632,299.611328 175.208038,308.436707   C174.272614,307.311066 173.323547,305.743591 172.217819,303.675110   C172.111343,302.962769 172.105301,302.754181 172.371628,302.253357   C172.773285,300.788422 172.846329,299.618469 172.892120,298.445923   C172.864868,298.443359 172.814011,298.435883 172.814011,298.435883   C173.496445,294.902649 173.934540,291.296295 174.960968,287.865997   C175.501297,286.060272 177.069656,284.562103 178.541473,282.884644  z"
   id="path74" />
<path
   fill="#20F3FC"
   opacity="1.000000"
   stroke="none"
   d=" M307.906311,227.281525   C312.641418,227.357101 317.665802,227.357101 323.348785,227.357101   C322.626556,232.448730 321.942444,237.271576 321.219574,242.477753   C320.499420,241.805664 319.179382,240.705658 319.249420,239.702682   C319.523010,235.783630 320.236206,231.895264 320.897308,227.205948   C316.364471,227.205948 312.280029,227.205948 307.906311,227.281525  z"
   id="path76" />
<path
   fill="#20F3FC"
   opacity="1.000000"
   stroke="none"
   d=" M327.769928,199.999359   C327.025787,204.865417 325.908722,209.687531 324.828461,214.350571   C319.791229,214.350571 314.846222,214.350571 309.668640,214.437073   C313.711151,214.523575 317.986206,214.523575 321.368195,214.523575   C323.522034,209.318954 325.459503,204.637177 327.769928,199.999359  z"
   id="path78" />
<path
   fill="#FE13FB"
   opacity="1.000000"
   stroke="none"
   d=" M140.261932,296.547302   C139.427872,296.286499 138.057877,295.521149 138.128647,294.927521   C138.729126,289.889954 139.560974,284.878204 140.441940,279.879578   C140.504623,279.523804 141.505646,279.333435 142.459854,279.070374   C142.030869,284.757202 141.212387,290.439789 140.261932,296.547302  z"
   id="path80" />
<path
   fill="#20F3FC"
   opacity="1.000000"
   stroke="none"
   d=" M319.663635,249.045135   C318.683899,252.544510 317.360016,255.996429 315.990082,259.429962   C315.114502,261.624481 314.170807,263.791870 312.901306,265.903442   C313.076874,262.415009 313.113464,258.809601 314.299194,255.633179   C315.228546,253.143433 317.580231,251.184601 319.663635,249.045135  z"
   id="path82" />
<path
   fill="#FE13FB"
   opacity="1.000000"
   stroke="none"
   d=" M300.391693,242.147202   C301.015198,238.494034 301.923737,234.843170 303.060059,231.264633   C303.436951,230.077545 304.399445,229.076385 305.490173,227.987183   C304.781067,232.932434 306.404053,238.864929 300.391693,242.147202  z"
   id="path84" />
<path
   fill="#FE13FB"
   opacity="1.000000"
   stroke="none"
   d=" M284.037811,210.945724   C285.384521,207.299362 286.731232,203.653000 288.106995,199.596939   C289.040771,199.799484 290.540039,200.276474 290.717010,201.054321   C291.015228,202.364990 290.474609,203.866516 290.590698,205.629547   C290.894592,205.971298 290.932587,205.995453 290.576904,205.964767   C288.924042,208.547195 287.939667,211.546280 284.037811,210.945724  z"
   id="path86" />
<path
   fill="#FE13FB"
   opacity="1.000000"
   stroke="none"
   d=" M172.483734,298.195984   C172.814011,298.435883 172.864868,298.443359 172.566757,298.746246   C172.193436,300.215546 172.118225,301.381927 172.043030,302.548340   C172.105301,302.754181 172.111343,302.962769 172.061188,303.237915   C170.627182,305.248596 169.193146,307.195526 167.385269,309.122009   C167.608490,305.345917 168.205566,301.590240 168.562042,297.654480   C169.598770,297.634918 170.876114,297.795502 172.483734,298.195984  z"
   id="path88" />
<path
   fill="#FE13FB"
   opacity="1.000000"
   stroke="none"
   d=" M172.457489,277.183044   C172.736771,273.747894 173.386932,270.362274 174.060303,266.570801   C174.941086,266.579956 176.579956,267.262329 176.542725,267.371094   C175.405838,270.692902 174.104309,273.958313 172.457489,277.183044  z"
   id="path90" />
<path
   fill="#4EBFF3"
   opacity="1.000000"
   stroke="none"
   d=" M357.397919,314.116150   C356.566772,314.578735 355.355438,315.589691 354.115295,315.626343   C346.691376,315.845886 339.260834,315.841125 331.480896,315.892578   C337.679016,315.677856 344.231964,315.552032 350.776489,315.245819   C352.863983,315.148163 354.929077,314.571686 357.397919,314.116150  z"
   id="path92" />
<path
   fill="#20F3FC"
   opacity="1.000000"
   stroke="none"
   d=" M179.699951,266.027466   C180.450470,269.441467 180.761642,272.802948 181.061859,276.576782   C177.463364,275.395386 176.620743,270.211395 179.699951,266.027466  z"
   id="path94" />
<path
   fill="#20F3FC"
   opacity="1.000000"
   stroke="none"
   d=" M338.650146,265.677429   C337.107269,265.574005 335.564392,265.470612 333.781982,265.413696   C334.994019,265.578033 336.445618,265.695923 338.245850,265.708191   C338.594513,265.602600 338.650146,265.677429 338.650146,265.677429  z"
   id="path96" />
<path
   fill="#20F3FC"
   opacity="1.000000"
   stroke="none"
   d=" M183.323669,278.194885   C184.204056,278.215973 185.347580,278.376709 186.718658,278.586121   C185.826401,278.534698 184.706589,278.434631 183.323669,278.194885  z"
   id="path98" />
<path
   fill="#20F3FC"
   opacity="1.000000"
   stroke="none"
   d=" M283.732727,242.166626   C283.587341,241.968704 283.602356,241.700134 283.815918,241.832672   C284.476196,241.762390 284.922943,241.559586 285.369690,241.356766   C285.510834,241.499054 285.651947,241.641327 286.005646,241.996201   C286.218201,242.208786 286.212952,242.536148 286.213837,242.699524   C285.435852,242.696793 284.657013,242.530670 283.732727,242.166626  z"
   id="path100" />
<path
   fill="#FE13FB"
   opacity="1.000000"
   stroke="none"
   d=" M338.982849,265.693451   C338.650146,265.677429 338.594513,265.602600 338.560150,265.567932   C339.270050,265.610443 340.014282,265.687653 340.976135,265.871124   C340.567688,265.888062 339.941650,265.798767 338.982849,265.693451  z"
   id="path102" />
<path
   fill="#FE13FB"
   opacity="1.000000"
   stroke="none"
   d=" M164.463730,309.847229   C164.907761,309.550964 165.672241,309.304932 166.755966,309.046478   C166.311523,309.321869 165.547852,309.609680 164.463730,309.847229  z"
   id="path104" />
<path
   fill="#FE13FB"
   opacity="1.000000"
   stroke="none"
   d=" M214.486923,309.831116   C214.927383,309.541565 215.688065,309.304291 216.765320,309.052704   C216.323654,309.320038 215.565399,309.601685 214.486923,309.831116  z"
   id="path106" />
<path
   fill="#FE13FB"
   opacity="1.000000"
   stroke="none"
   d=" M266.475891,309.836182   C266.918091,309.542847 267.680725,309.299255 268.761292,309.045624   C268.318298,309.319061 267.557312,309.602509 266.475891,309.836182  z"
   id="path108" />
<path
   fill="#FE13FB"
   opacity="1.000000"
   stroke="none"
   d=" M317.464722,309.844727   C317.908661,309.547699 318.673309,309.300995 319.757202,309.044281   C319.312775,309.321167 318.549103,309.608063 317.464722,309.844727  z"
   id="path110" />
<path
   fill="#FE13FB"
   opacity="1.000000"
   stroke="none"
   d=" M297.486328,242.836212   C297.924652,242.543549 298.683838,242.302704 299.759583,242.050934   C299.319855,242.322693 298.563538,242.605362 297.486328,242.836212  z"
   id="path112" />
<path
   fill="#23AEF0"
   opacity="1.000000"
   stroke="none"
   d=" M196.851761,350.291077   C197.219498,350.288025 197.728134,350.513428 198.059998,350.911316   C197.586365,350.895721 197.289505,350.707611 196.851761,350.291077  z"
   id="path114" />
<path
   fill="#FE13FB"
   opacity="1.000000"
   stroke="none"
   d=" M308.928772,181.711929   C308.524109,181.846939 307.970428,181.719269 307.239075,181.363190   C307.634216,181.239609 308.207001,181.344437 308.928772,181.711929  z"
   id="path116" />
<path
   fill="#FE13FB"
   opacity="1.000000"
   stroke="none"
   d=" M235.959839,199.680298   C235.543213,199.838760 235.008148,199.722672 234.285828,199.403809   C234.679504,199.269272 235.260452,199.337494 235.959839,199.680298  z"
   id="path118" />
<path
   fill="#FE13FB"
   opacity="1.000000"
   stroke="none"
   d=" M228.377045,242.828644   C228.561951,242.555649 229.043152,242.318695 229.803940,242.061798   C229.613480,242.316132 229.143417,242.590408 228.377045,242.828644  z"
   id="path120" />
<path
   fill="#FE13FB"
   opacity="1.000000"
   stroke="none"
   d=" M330.378784,242.822662   C330.564880,242.551865 331.046112,242.317108 331.806244,242.062302   C331.614716,242.314407 331.144318,242.586563 330.378784,242.822662  z"
   id="path122" />
<path
   fill="#20F3FC"
   opacity="1.000000"
   stroke="none"
   d=" M357.042847,297.368408   C357.022156,297.376434 357.082916,297.384735 357.082916,297.384735   C357.082916,297.384735 357.037048,297.293060 357.088196,297.340240   C357.139343,297.387421 357.063538,297.360413 357.042847,297.368408  z"
   id="path124" />
<path
   fill="#FE13FB"
   opacity="1.000000"
   stroke="none"
   d=" M170.365021,277.967834   C170.519302,277.640106 170.996246,277.341095 171.770187,277.050781   C171.607361,277.371826 171.147537,277.684174 170.365021,277.967834  z"
   id="path126" />
<path
   fill="#20F3FC"
   opacity="1.000000"
   stroke="none"
   d=" M181.016937,277.334595   C181.400238,277.100861 181.812561,277.256317 182.396713,277.710999   C182.061020,277.914764 181.553482,277.819275 181.016937,277.334595  z"
   id="path128" />
<path
   fill="#FFFFFF"
   opacity="1.000000"
   stroke="none"
   d=" M205.879669,297.271851   C200.200500,296.755585 194.466782,299.094025 189.511719,295.742310   C189.525681,295.261230 189.539627,294.780121 189.553589,294.299011   C194.647324,294.299011 199.744156,294.220612 204.829971,294.421265   C205.334259,294.441132 205.771332,296.164886 205.879669,297.271851  z"
   id="path130" />

<path
   fill="#20f3fc"
   opacity="1"
   stroke="none"
   d="m 310.10239,297.20264 c 0.60834,-6.04266 1.63559,-11.96994 2.80774,-18.7334 -4.57355,0 -8.14615,0 -12.01041,0.0633 4.30994,0.0633 8.91156,0.0633 14.28613,0.0633 -0.84188,5.7735 -1.59683,11.40066 -2.56301,16.99133 -0.11713,0.67777 -1.37327,1.15869 -2.52045,1.61548 z"
   id="path134" />



<path
   fill="#20f3fc"
   opacity="1"
   stroke="none"
   d="m 216.15609,232.34859 c 0.83522,-6.06485 1.93609,-11.96775 3.20294,-18.76056 -4.33783,0 -7.88214,0 -11.71915,0.0625 4.14081,0.0625 8.57434,0.0625 13.82328,0.0625 -0.84572,5.83468 -1.58522,11.4875 -2.58011,17.095 -0.12265,0.69127 -1.60762,1.14084 -2.72696,1.54046 z"
   id="path142" />



<path
   fill="#FFFFFF"
   opacity="1.000000"
   stroke="none"
   d=" M285.534393,241.145416   C284.922943,241.559586 284.476196,241.762390 283.905884,241.842484   C283.939758,241.027924 284.097168,240.336075 284.553528,238.770905   C284.852448,237.897583 284.762634,238.133820 284.762634,238.133820   C284.762634,238.133820 284.987000,238.064545 284.987000,238.064545   C285.257355,238.317444 285.527710,238.570328 286.193756,239.215088   C286.292664,240.049332 285.995880,240.491684 285.534393,241.145416  z"
   id="path150" />
<path
   fill="#20F3FC"
   opacity="1.000000"
   stroke="none"
   d=" M285.061249,238.042084   C284.987000,238.064545 284.762634,238.133820 284.762634,238.133820   C284.762634,238.133820 284.852448,237.897583 284.841125,237.746185   C284.989044,237.515228 285.148315,237.435654 285.326965,237.530411   C285.346405,237.704727 285.135498,238.019608 285.061249,238.042084  z"
   id="path152" />
<path
   fill="#fe13fb"
   opacity="1"
   stroke="none"
   d="m 806.84659,359.3584 c -0.66846,0.15297 -1.62918,0.3687 -2.88043,0.50427 0.66903,-0.20061 1.6286,-0.32107 2.88043,-0.50427 z"
   id="path154" />
<path
   fill="#FFFFFF"
   opacity="1.000000"
   stroke="none"
   d=" M328.646667,277.155762   C328.572815,281.862762 328.129303,286.751038 327.318176,291.822266   C327.392700,287.115814 327.834839,282.226440 328.646667,277.155762  z"
   id="path156" />
<path
   fill="#FFFFFF"
   opacity="1.000000"
   stroke="none"
   d=" M326.592682,292.149323   C326.883667,294.199005 326.802673,296.431030 326.349243,298.843597   C326.058136,296.793304 326.139435,294.562500 326.592682,292.149323  z"
   id="path158" />
<path
   fill="#FFFFFF"
   opacity="1.000000"
   stroke="none"
   d=" M329.618042,269.745178   C329.893616,271.847717 329.828461,274.233521 329.379517,276.824829   C329.089600,274.696350 329.183441,272.362427 329.618042,269.745178  z"
   id="path160" />
<path
   fill="#FFFFFF"
   opacity="1.000000"
   stroke="none"
   d=" M221.655975,306.097046   C221.863098,306.647003 221.683334,307.291626 221.157043,308.185211   C220.963379,307.686676 221.116226,306.939209 221.655975,306.097046  z"
   id="path162" />
<path
   fill="#FFFFFF"
   opacity="1.000000"
   stroke="none"
   d=" M172.371628,302.253357   C172.118225,301.381927 172.193436,300.215546 172.594009,298.748810   C172.846329,299.618469 172.773285,300.788422 172.371628,302.253357  z"
   id="path164" />
</svg>
